#!OML:ASF F:\VICON\USERDATA\INSTALL\rory3\rory3.ASF
:FULLY-SPECIFIED
:DEGREES
524
root 0.359715 16.0424 4.02448 3.4474 -49.7067 13.7534
lowerback -1.06377 6.51965 6.24008
upperback 4.22521 8.65202 -3.65489
thorax 6.55523 4.69449 -6.63999
lowerneck -7.04881 -1.80088 -7.79399
upperneck 52.6982 -3.23032 1.55863
head 24.8642 -2.9306 1.69691
rclavicle 3.97569e-016 -3.18055e-015
rhumerus -31.7467 39.4203 -103.562
rradius 53.356
rwrist -16.0292
rhand -12.3423 -40.0939
rfingers 7.12502
rthumb 13.7271 -69.6211
lclavicle 3.97569e-016 -3.18055e-015
lhumerus 0.204761 -63.5353 74.7495
lradius 93.5605
lwrist 36.7723
lhand -15.0564 -23.163
lfingers 7.12502
lthumb 11.1104 6.52287
rfemur -52.5703 1.09329 8.05454
rtibia 80.507
rfoot -12.1824 -16.3291
rtoes -23.9886
lfemur -41.151 -19.1279 -31.4708
ltibia 51.9248
lfoot -22.4842 0.951149
ltoes 13.417
525
root 0.359995 16.0403 4.02156 3.30306 -49.6964 13.9496
lowerback -1.10968 6.68782 6.19312
upperback 4.32039 8.88626 -3.80827
thorax 6.74551 4.8226 -6.7381
lowerneck -7.0327 -1.96142 -7.51737
upperneck 52.6241 -3.62669 1.68353
head 24.8049 -2.99614 1.63565
rclavicle 4.45278e-014 1.74931e-014
rhumerus -31.5877 38.9629 -103.545
rradius 53.3703
rwrist -15.3011
rhand -11.8367 -41.1086
rfingers 7.12502
rthumb 14.2144 -70.6023
lclavicle 4.45278e-014 1.74931e-014
lhumerus 0.804671 -64.1745 74.0391
lradius 93.6929
lwrist 37.2386
lhand -13.8069 -23.0998
lfingers 7.12502
lthumb 12.3153 6.51757
rfemur -52.6257 1.02108 7.92984
rtibia 80.5793
rfoot -11.9549 -16.4263
rtoes -24.5858
lfemur -41.1418 -19.1265 -31.6109
ltibia 51.9039
lfoot -22.5091 0.936982
ltoes 13.3379
526
root 0.362356 16.0361 4.01625 3.14898 -49.6442 14.1217
lowerback -1.06409 6.60849 6.05497
upperback 4.27855 8.78278 -3.74498
thorax 6.62086 4.75701 -6.61543
lowerneck -6.70016 -1.84843 -7.65499
upperneck 52.6598 -3.40416 1.61333
head 24.6674 -2.95355 1.67054
rclavicle 6.04305e-014 -4.45278e-014
rhumerus -32.1436 39.2976 -103.867
rradius 53.4214
rwrist -14.7155
rhand -11.5031 -41.9529
rfingers 7.12502
rthumb 14.5358 -71.4236
lclavicle 6.04305e-014 -4.45278e-014
lhumerus -0.414174 -64.0634 75.145
lradius 93.6947
lwrist 37.1752
lhand -13.6655 -23.4373
lfingers 7.12502
lthumb 12.4516 6.17182
rfemur -52.665 0.978617 7.81206
rtibia 80.6632
rfoot -11.7825 -16.7076
rtoes -24.487
lfemur -41.1558 -19.1711 -31.717
ltibia 51.9257
lfoot -22.4866 0.811619
ltoes 13.5403
527
root 0.364262 16.0298 4.01086 3.04417 -49.6497 14.2823
lowerback -1.08958 6.37209 5.86078
upperback 4.12778 8.45797 -3.5049
thorax 6.34317 4.56481 -6.29793
lowerneck -6.08181 -1.54828 -8.42347
upperneck 52.7567 -2.76326 1.59024
head 24.4651 -2.89255 1.94277
rclavicle 4.25399e-014 -3.18055e-015
rhumerus -33.3015 40.3297 -104.49
rradius 53.4499
rwrist -14.5305
rhand -11.8202 -41.7366
rfingers 7.12502
rthumb 14.2303 -71.2291
lclavicle 4.25399e-014 -3.18055e-015
lhumerus -2.8498 -63.4291 77.495
lradius 93.6071
lwrist 36.657
lhand -14.9106 -23.5699
lfingers 7.12502
lthumb 11.2509 6.1084
rfemur -52.7667 0.988076 7.69043
rtibia 80.7445
rfoot -11.8145 -16.8087
rtoes -23.9434
lfemur -41.2451 -19.1969 -31.7739
ltibia 51.9965
lfoot -22.5009 0.820806
ltoes 12.9696
528
root 0.367472 16.024 4.00369 3.25681 -49.5861 14.13
lowerback -1.00019 6.49048 5.89445
upperback 4.07809 8.61706 -3.45125
thorax 6.26149 4.64035 -6.25549
lowerneck -5.86303 -1.6809 -8.67618
upperneck 52.7744 -3.04914 1.83949
head 24.4574 -3.02222 2.08766
rclavicle -1.98785e-015 3.18055e-014
rhumerus -33.459 40.1122 -104.474
rradius 53.4255
rwrist -14.3644
rhand -11.9391 -41.7834
rfingers 7.12502
rthumb 14.1157 -71.2839
lclavicle -1.98785e-015 3.18055e-014
lhumerus -3.23397 -63.9706 78.0409
lradius 93.5068
lwrist 36.1727
lhand -15.6727 -23.5264
lfingers 7.12502
lthumb 10.5159 6.19056
rfemur -52.9175 0.936699 7.81217
rtibia 80.779
rfoot -11.8745 -16.8287
rtoes -23.5558
lfemur -41.4854 -19.2598 -31.5846
ltibia 52.1262
lfoot -22.5566 0.908297
ltoes 12.0638
529
root 0.372905 16.0187 3.99642 3.61201 -49.4054 13.7526
lowerback -0.783628 6.57267 6.1373
upperback 3.98139 8.72888 -3.43228
thorax 6.0898 4.70042 -6.38778
lowerneck -5.70134 -1.81081 -8.64671
upperneck 52.8391 -3.34713 1.95533
head 24.5074 -3.11412 2.09532
rclavicle -1.67377e-013 4.92986e-014
rhumerus -33.5906 39.8223 -104.602
rradius 53.3029
rwrist -14.1977
rhand -11.9127 -42.1887
rfingers 7.12502
rthumb 14.1411 -71.6874
lclavicle -1.67377e-013 4.92986e-014
lhumerus -3.7019 -64.5098 78.5118
lradius 93.4991
lwrist 36.167
lhand -15.1057 -23.4194
lfingers 7.12502
lthumb 11.0629 6.26904
rfemur -53.0081 0.78567 8.15652
rtibia 80.7585
rfoot -11.5342 -17.168
rtoes -24.3172
lfemur -41.7104 -19.3314 -31.3105
ltibia 52.2915
lfoot -22.571 0.752929
ltoes 12.6954
530
root 0.378446 16.0169 3.9899 3.88296 -49.2952 13.3805
lowerback -0.519749 6.69302 6.41814
upperback 3.97219 8.89508 -3.44062
thorax 6.00701 4.7949 -6.56451
lowerneck -6.10595 -2.0449 -8.26152
upperneck 53.2309 -3.65087 1.58475
head 25.1693 -3.19153 1.74089
rclavicle -6.67916e-014 -2.54444e-014
rhumerus -33.4107 39.5336 -104.634
rradius 52.979
rwrist -14.0241
rhand -12.175 -42.3325
rfingers 7.12502
rthumb 13.8883 -71.8488
lclavicle -6.67916e-014 -2.54444e-014
lhumerus -3.78371 -65.0155 78.5774
lradius 93.5964
lwrist 36.747
lhand -14.5199 -23.127
lfingers 7.12502
lthumb 11.6278 6.53036
rfemur -53.0125 0.700433 8.50324
rtibia 80.7089
rfoot -11.058 -17.5348
rtoes -25.5616
lfemur -41.8328 -19.3855 -31.0525
ltibia 52.4624
lfoot -22.5718 0.655273
ltoes 13.4466
531
root 0.38378 16.0138 3.98042 4.07462 -49.2313 13.1095
lowerback -0.366167 6.74256 6.58882
upperback 4.01214 8.95942 -3.35256
thorax 5.98717 4.83252 -6.57409
lowerneck -6.6765 -2.21902 -8.15778
upperneck 53.7955 -3.71763 1.07938
head 26.1765 -3.25795 1.39421
rclavicle -4.77083e-014 4.77083e-015
rhumerus -33.2033 39.5653 -104.566
rradius 52.6629
rwrist -13.7942
rhand -12.2436 -42.5934
rfingers 7.12502
rthumb 13.8222 -72.1142
lclavicle -4.77083e-014 4.77083e-015
lhumerus -3.97651 -65.2039 78.8707
lradius 93.5717
lwrist 36.7074
lhand -13.7345 -23.284
lfingers 7.12502
lthumb 12.3851 6.32913
rfemur -53.0169 0.691214 8.76075
rtibia 80.6737
rfoot -10.6798 -17.7724
rtoes -26.5425
lfemur -41.947 -19.4295 -30.8215
ltibia 52.6163
lfoot -22.6078 0.671818
ltoes 13.3884
